<svg id="visual" viewBox="0 0 900 600" width="900" height="600" xmlns="http://www.w3.org/2000/svg" xmlns:xlink="http://www.w3.org/1999/xlink" version="1.1"><path d="M0 97L13.7 103C27.3 109 54.7 121 82 135C109.3 149 136.7 165 163.8 179C191 193 218 205 245.2 205C272.3 205 299.7 193 327 195C354.3 197 381.7 213 409 216C436.3 219 463.7 209 491 205C518.3 201 545.7 203 573 200C600.3 197 627.7 189 654.8 180C682 171 709 161 736.2 153C763.3 145 790.7 139 818 129C845.3 119 872.7 105 886.3 98L900 91L900 0L886.3 0C872.7 0 845.3 0 818 0C790.7 0 763.3 0 736.2 0C709 0 682 0 654.8 0C627.7 0 600.3 0 573 0C545.7 0 518.3 0 491 0C463.7 0 436.3 0 409 0C381.7 0 354.3 0 327 0C299.7 0 272.3 0 245.2 0C218 0 191 0 163.8 0C136.7 0 109.3 0 82 0C54.7 0 27.3 0 13.7 0L0 0Z" fill="#6198ff"></path><path d="M0 139L13.7 155C27.3 171 54.7 203 82 221C109.3 239 136.7 243 163.8 256C191 269 218 291 245.2 298C272.3 305 299.7 297 327 294C354.3 291 381.7 293 409 301C436.3 309 463.7 323 491 315C518.3 307 545.7 277 573 266C600.3 255 627.7 263 654.8 265C682 267 709 263 736.2 254C763.3 245 790.7 231 818 226C845.3 221 872.7 225 886.3 227L900 229L900 89L886.3 96C872.7 103 845.3 117 818 127C790.7 137 763.3 143 736.2 151C709 159 682 169 654.8 178C627.7 187 600.3 195 573 198C545.7 201 518.3 199 491 203C463.7 207 436.3 217 409 214C381.7 211 354.3 195 327 193C299.7 191 272.3 203 245.2 203C218 203 191 191 163.8 177C136.7 163 109.3 147 82 133C54.7 119 27.3 107 13.7 101L0 95Z" fill="#4988ff"></path><path d="M0 193L13.7 205C27.3 217 54.7 241 82 264C109.3 287 136.7 309 163.8 324C191 339 218 347 245.2 347C272.3 347 299.7 339 327 337C354.3 335 381.7 339 409 346C436.3 353 463.7 363 491 357C518.3 351 545.7 329 573 319C600.3 309 627.7 311 654.8 312C682 313 709 313 736.2 305C763.3 297 790.7 281 818 276C845.3 271 872.7 277 886.3 280L900 283L900 227L886.3 225C872.7 223 845.3 219 818 224C790.7 229 763.3 243 736.2 252C709 261 682 265 654.8 263C627.7 261 600.3 253 573 264C545.7 275 518.3 305 491 313C463.7 321 436.3 307 409 299C381.7 291 354.3 289 327 292C299.7 295 272.3 303 245.2 296C218 289 191 267 163.8 254C136.7 241 109.3 237 82 219C54.7 201 27.3 169 13.7 153L0 137Z" fill="#2d77ff"></path><path d="M0 235L13.7 248C27.3 261 54.7 287 82 315C109.3 343 136.7 373 163.8 395C191 417 218 431 245.2 428C272.3 425 299.7 405 327 400C354.3 395 381.7 405 409 411C436.3 417 463.7 419 491 418C518.3 417 545.7 413 573 410C600.3 407 627.7 405 654.8 398C682 391 709 379 736.2 370C763.3 361 790.7 355 818 357C845.3 359 872.7 369 886.3 374L900 379L900 281L886.3 278C872.7 275 845.3 269 818 274C790.7 279 763.3 295 736.2 303C709 311 682 311 654.8 310C627.7 309 600.3 307 573 317C545.7 327 518.3 349 491 355C463.7 361 436.3 351 409 344C381.7 337 354.3 333 327 335C299.7 337 272.3 345 245.2 345C218 345 191 337 163.8 322C136.7 307 109.3 285 82 262C54.7 239 27.3 215 13.7 203L0 191Z" fill="#0066ff"></path><path d="M0 463L13.7 472C27.3 481 54.7 499 82 508C109.3 517 136.7 517 163.8 516C191 515 218 513 245.2 506C272.3 499 299.7 487 327 484C354.3 481 381.7 487 409 488C436.3 489 463.7 485 491 490C518.3 495 545.7 509 573 518C600.3 527 627.7 531 654.8 530C682 529 709 523 736.2 522C763.3 521 790.7 525 818 528C845.3 531 872.7 533 886.3 534L900 535L900 377L886.3 372C872.7 367 845.3 357 818 355C790.7 353 763.3 359 736.2 368C709 377 682 389 654.8 396C627.7 403 600.3 405 573 408C545.7 411 518.3 415 491 416C463.7 417 436.3 415 409 409C381.7 403 354.3 393 327 398C299.7 403 272.3 423 245.2 426C218 429 191 415 163.8 393C136.7 371 109.3 341 82 313C54.7 285 27.3 259 13.7 246L0 233Z" fill="#005de8"></path><path d="M0 529L13.7 533C27.3 537 54.7 545 82 551C109.3 557 136.7 561 163.8 564C191 567 218 569 245.2 565C272.3 561 299.7 551 327 545C354.3 539 381.7 537 409 536C436.3 535 463.7 535 491 542C518.3 549 545.7 563 573 570C600.3 577 627.7 577 654.8 571C682 565 709 553 736.2 549C763.3 545 790.7 549 818 552C845.3 555 872.7 557 886.3 558L900 559L900 533L886.3 532C872.7 531 845.3 529 818 526C790.7 523 763.3 519 736.2 520C709 521 682 527 654.8 528C627.7 529 600.3 525 573 516C545.7 507 518.3 493 491 488C463.7 483 436.3 487 409 486C381.7 485 354.3 479 327 482C299.7 485 272.3 497 245.2 504C218 511 191 513 163.8 514C136.7 515 109.3 515 82 506C54.7 497 27.3 479 13.7 470L0 461Z" fill="#0055d1"></path><path d="M0 601L13.7 601C27.3 601 54.7 601 82 601C109.3 601 136.7 601 163.8 601C191 601 218 601 245.2 601C272.3 601 299.7 601 327 601C354.3 601 381.7 601 409 601C436.3 601 463.7 601 491 601C518.3 601 545.7 601 573 601C600.3 601 627.7 601 654.8 601C682 601 709 601 736.2 601C763.3 601 790.7 601 818 601C845.3 601 872.7 601 886.3 601L900 601L900 557L886.3 556C872.7 555 845.3 553 818 550C790.7 547 763.3 543 736.2 547C709 551 682 563 654.8 569C627.7 575 600.3 575 573 568C545.7 561 518.3 547 491 540C463.7 533 436.3 533 409 534C381.7 535 354.3 537 327 543C299.7 549 272.3 559 245.2 563C218 567 191 565 163.8 562C136.7 559 109.3 555 82 549C54.7 543 27.3 535 13.7 531L0 527Z" fill="#004cbb"></path></svg>